<svg xmlns="http://www.w3.org/2000/svg" viewBox="0 0 224.89 78.19"><defs><style>.cls-1,.cls-2{fill:#003f88;}.cls-1{fill-rule:evenodd;}</style></defs><title>资源 5</title><g id="图层_2" data-name="图层 2"><g id="图层_1-2" data-name="图层 1"><path class="cls-1" d="M161.08,52.9c-2.4-.52-1-1.27-1.36-3.33-.32-1.77-1.92-3.5-1.88-4.81.14-3.53,4.67-3.31,7.42-2.18a4.91,4.91,0,0,1,1.57,1.67c1.26,1.81,2.74,4.45.78,6.45a7.65,7.65,0,0,1-6.53,2.2"/><path class="cls-1" d="M133.77,49.21l-.24-.09c0-.27,0-.54.06-.77a77.59,77.59,0,0,0,7.27-4.73c1.9-1.51,3.6-3.2,4.15-5.64-4.69,1.54-9.12,4.94-14,5.31-2.24-.56-3.78-1.78-5.36-2.46,0-.12,0-.19,0-.27-2.56-1.67-2.79-3.83,0-4.76,4.88,1.08,12.35-2.4,16.94-4.15,1-.46,4-1.51,4.81-2.45,1.08-6.44.37-12.9.75-19.06,1.58-4.45,4.35-1.42,7.11.81.18.37.81.78,1.37,1.61l.27,0c1.16,1.86,1.49,2.71-.32,4.44A23.63,23.63,0,0,0,155,26.85c3.35-.47,5.37-3.41,9.26-3.46a3.52,3.52,0,0,1-.9,4.82c-2.83,1.35-5.9,2.57-9.11,4-.75,3.25-2,7.23-4.33,9.87a23,23,0,0,1-2.39,2.17c-2.08,1.2-4,2.68-6.22,3.31-6.3,1.76-6.37,1.46-7.5,1.62"/><path class="cls-1" d="M73.61,60.2c-2.31-1.08-4.42-3.86-5.67-5.61.21-.62.43-1.24.67-1.82C74.07,48.68,79.47,44.89,84.42,40c1.49-2.31,3.45-4.71,5-7a1.1,1.1,0,0,1,.29-.09c0-.1,0-.17,0-.24,1.4-1.09,2-1.38,3.17.41.09,1.49-2.59,3.08-3.44,4.49-1,2.67-2.23,5.38-3.59,8.1-.44.49-.44.49-2.18,3.35a19.39,19.39,0,0,0-4.24,5.89c-1.72,1-2.46,4.05-4.54,5.11a10.92,10.92,0,0,0-1.31.15"/><path class="cls-1" d="M105.83,41.07c-3.37-.14-4.32-2.3-6.16-4.25,0-.89.48-1.42.55-2a3.25,3.25,0,0,0,1.36-.51c1.42-.2,1.92-.12,3.45-.22,1.94-.44,6.9-3.85,8.56-2.38.25,4.08-4.2,8.21-7.76,9.39"/><path class="cls-1" d="M80,34.62c-1.29-1.13-1.54-6.32-1.64-8,1-2.91,3.88-3,6.32-1.13,1.94,2.54,3.26,3.61,1.23,6.58-2.31,2-3.33,2.14-5.91,2.51"/><path class="cls-1" d="M104.91,32.11c-.35-1.59,1.83-5,1.21-5.78-.81.12-1.65.42-2.51.47-2-1-4.24-3.44-3.43-5.34,1.5-1.7.92-1.27,3.26-1.42,2.23-1,4.45-1.95,6.71-2.91,3.78-.71,5.51,1.36,5.74,5.06-.67,2.39-2.27,4.28-3.83,6.16-2,1.09-3.82,2.3-5.63,3.49a14.14,14.14,0,0,0-1.52.27"/><path class="cls-1" d="M84.26,21.41c-.8-.7-.46-1.08-.05-1.78-.09-1.56-1-2.82-1.12-4.31.51-2.74,0-3.75,2.26-5.07,1.76.79,7.91,3.93,6.45,7.37-1.69,2.14-5.1,3.5-7.54,3.79"/><path class="cls-1" d="M4.58,62.75C.93,61.35-2.27,54.1,2.15,52.32a2.11,2.11,0,0,1,1.19-1.47c0-.12,0-.2,0-.27,3.55-3.44,5.89-8.24,8.87-12,.77-1.44,1.18-2.83,2.82-3.24.82.73.54,2.37.31,3.63.36.32,1.63.09,2.39-.15,2.47-2.13,5.69-4,8.14-6.24.13-1.1.25-2.2.42-3.25-1.72.42-7.37,1.74-6-1.45,2.12-.83,5.34-2.66,6.48-4.94.55-2.32.23-4.9,1.41-6.56,2.37-1.23,5.19,1.77,5.66,4.34,1,1.68,3.93-.41.22,4.8-.78.58-.74,1.71-.59,2.9l.82.06C36.33,27,38.59,25.35,41,24c.64-3.33,1.17-6.12,2.78-8.93,2.3-1.58,5.44.13,7.68,1.93,1.74-.11,2.82-.84,4.37-2a3.88,3.88,0,0,1,1.78-.19,6.29,6.29,0,0,1,.72,2.9c-1.11,3.4-10.85,4.51-9,8.47,1.71-.11,2.29-2,2.91-3.21,1.91-1,6,.21,8,1.67,2.22,2.7.49,3.62-2,5.32-.25.36-.5.73-.71,1.09-.17,5.44-.17,5.44-.1,12.8a12.75,12.75,0,0,1-3,4.57c0,.07,0,.15,0,.23l-.27,0c-1,1.64-3.25,3.26-4.63,1.72,0-6,.32-12.31.12-18.07a.71.71,0,0,0-.31.09C49,35.37,46,40.9,43.51,42.72a4.79,4.79,0,0,1-4.93-3.18c.23-.59.69-.74,1.17-1.16,1.31-2.67.92-7.62.92-10.25-1.89.27-5.07,4.55-6.49,6.14-1,.76-1.92,1.52-2.84,2.27-.67,2.25-1.2,4.46-1.78,6.86-.52,1.08-1,2.2-1.54,3.31l-.27,0c-.88,1.49-3.74,5.39-5.44,2.94a6.38,6.38,0,0,1,0-1,15.09,15.09,0,0,0,2.55-7.45c-2.31.77-3.85,2.88-6.17,3a15.09,15.09,0,0,1-3.56-1.13c0-.12,0-.2,0-.27-.57-.36-1.14-.86-1.48-.73-.43,1.31-.85,2.66-1.23,4A93.93,93.93,0,0,0,6.68,61.53a3.41,3.41,0,0,1-2.1,1.22"/><path class="cls-1" d="M9.15,34c-.72-1,.16-2.41.2-3.62-1.14-3.41-2-6,.15-8.85a9.15,9.15,0,0,1,1-.1,29.18,29.18,0,0,1,5.19,5.45c1.65,4.09-3.63,5.93-6.58,7.12"/><path class="cls-1" d="M12.44,20.74c-.87-.29-.85-.49-1-.79.41-.84.81-1.33.64-2.17-2.1-3.21-2-8.1,1.64-9.72,1.06.13,1.08,1,1.55,2.46,2.36,2.3,6.74,5.13,2.59,8.23-1.76.77-3.65,1.38-5.4,2"/><path class="cls-1" d="M187.13,33.28c-3.27-1-2.66-6.4-2.1-8.58,2.39-1.52,5.53,1.65,5.7,4.46-.61,3.1-.58,3.55-3.6,4.12"/><path class="cls-1" d="M204.85,58.1a2.62,2.62,0,0,0-.28-.17,29.69,29.69,0,0,1-11.94-1.48,1.36,1.36,0,0,1-.2-.83c2.21-1.28,5.32-.93,7-3.25a19.58,19.58,0,0,0,.3-4.91c-4.15.25-6.37,3.19-9.67,4.38-2.82.18-7.83-2.37-8.65-4.61,0-3.63.75-2,4.63-2.24,4.62-.82,9.23-3.47,13.7-5.43a4.86,4.86,0,0,1,1.47-.93c1-3,1.69-3.54,4.83-4.16a54.68,54.68,0,0,0,4.79-2.78,10.5,10.5,0,0,1,.32-1.05c-5.43.64-9.82,5-14.15,7.94a7.3,7.3,0,0,1-5.26-.43c-.95.13-6.36,1.08-3.74-1.07,1.61-.63,2.83-1.78,4.54-2.53,4.07-2.74,8.78-5.09,13.18-7.62a2.25,2.25,0,0,0-.43-1.23,5.55,5.55,0,0,1,.45-2.1c-.83.29-1.06.23-1.21.85-2.61,1.15-3.72,3.51-5.9,1a5,5,0,0,1-4.49,4c-2.33-1.19-2.39-5.08-2.8-6.89-.17-.22-.49-1.72-1.14-3.48-1.05-2.14-3-4.54-1.7-6.5,1.65-1,2.32-1.4,3.72.84a20.17,20.17,0,0,1,3.94,3.77l.27,0c.73,2,2.54,4.58,2.35,7.11,1.22-.73,3-2.13,2.07-3.68-2-1.1-.87-3,.54-3.66a10.71,10.71,0,0,0,2.28-.07.86.86,0,0,0-.31-.78c-1.68-.58-1.36-1-.91-2.35a3.12,3.12,0,0,1-1.95-4.23c5.69-1.42,5.69-1.42,8.35-2.28C210.64,5.06,212.56-1,216,.14a7.75,7.75,0,0,1,1.61,5.51,9.86,9.86,0,0,0-1.21,2.67,8.85,8.85,0,0,1,1,0c2.38-1.18,3.47-2.59,4.88.95,2.29,1.24,3.11.92,2.25,4.25-1.66,3.35-3.47,6.94-5.32,10.3a1.8,1.8,0,0,0,0,.46c.43.09.85.18,1.28.3a29.8,29.8,0,0,1,.25,5.22c-1.43,2.11-3.23,2.1-5.51,2.4-2.89,1.44-5.49,2.63-8.22,4.25a4,4,0,0,0,.19,1.79c1.37,0,2.78-.06,4.2-.07,1.55,1,1.42,3.84.46,5.5a9.8,9.8,0,0,0-3.76,1.08c-.14.77-.28,1.54-.42,2.35.1,3,1.67,10.28-2.8,11M213.74,21c1.4-1.42,2.38-2.82,2.26-4.76-1.17-1-3.21-1.17-4.43-1.1-.15.55-.15.55-1.56,3.16a4.69,4.69,0,0,0,.44.2,1.14,1.14,0,0,0-.42.18.92.92,0,0,0,.1.25c.62.09,1-.4,1.24-.83,2.2-.37,2.25.43,2.09,2.77a1.61,1.61,0,0,1,.28.13"/><polygon class="cls-2" points="11 76.69 17.43 68.74 11.51 68.74 11.51 68.12 11.51 67.5 19.2 67.5 19.2 68.11 19.2 68.72 12.77 76.67 19.19 76.67 19.19 77.29 19.19 77.91 11 77.91 11 77.3 11 76.69"/><polygon class="cls-2" points="22.39 67.5 23.1 67.5 23.8 67.5 23.8 71.77 29.24 71.77 29.24 67.5 29.94 67.5 30.65 67.5 30.65 77.91 29.95 77.91 29.24 77.91 29.24 73.01 23.8 73.01 23.8 77.91 23.1 77.91 22.39 77.91 22.39 67.5"/><polygon class="cls-2" points="34.45 77.91 34.45 67.5 42.07 67.5 42.07 68.12 42.07 68.74 35.87 68.74 35.87 71.93 41.54 71.93 41.54 72.55 41.54 73.17 35.87 73.17 35.87 76.67 42.15 76.67 42.15 77.29 42.15 77.91 34.45 77.91"/><path class="cls-2" d="M49.43,67.49h1.42V75a3.35,3.35,0,0,1-.78,2.37,2.85,2.85,0,0,1-2.21.83,3.1,3.1,0,0,1-2.25-.77,2.7,2.7,0,0,1-.73-2.15v-.72H46.2v.72a1.81,1.81,0,0,0,.41,1.28A1.68,1.68,0,0,0,49,76.46,2.24,2.24,0,0,0,49.43,75Z"/><polygon class="cls-2" points="54.66 67.5 55.36 67.5 56.07 67.5 56.07 77.91 55.37 77.91 54.66 77.91 54.66 67.5"/><path class="cls-2" d="M63,67.49h1.61l3.74,10.42H66.8l-1.06-3H61.57l-1.09,3H59ZM62,73.65H65.3L63.69,69h0Z"/><polygon class="cls-2" points="72.42 77.91 71.74 77.91 71.06 77.91 71.06 67.5 71.9 67.5 72.75 67.5 77.97 75.96 77.97 67.5 78.65 67.5 79.33 67.5 79.33 77.91 78.56 77.91 77.79 77.91 72.42 69.41 72.42 77.91"/><path class="cls-2" d="M88,78.19a4.45,4.45,0,0,1-3.51-1.51,6.51,6.51,0,0,1,0-8A5,5,0,0,1,91,68.17a3.61,3.61,0,0,1,1.44,2.45H91.12a2.41,2.41,0,0,0-1-1.6,3.64,3.64,0,0,0-2.1-.56,3,3,0,0,0-2.46,1.18,4.81,4.81,0,0,0-1,3.09,4.88,4.88,0,0,0,.91,3.15A3.15,3.15,0,0,0,88.09,77a3.21,3.21,0,0,0,2.6-1.18,2.82,2.82,0,0,0,.29-.39,2.5,2.5,0,0,0,.28-.77,4,4,0,0,0,.12-.94v-.13H88.12V72.39h4.55V77.9H91.8l-.35-1.31-.07.09A4.19,4.19,0,0,1,88,78.19"/><path class="cls-2" d="M110.61,74.09a4.33,4.33,0,0,1-7.14,3.06,4.15,4.15,0,0,1-1-3.06v-6.6h1.41V74a3.14,3.14,0,0,0,.69,2.2,2.53,2.53,0,0,0,2,.76,2.57,2.57,0,0,0,2-.76,3.18,3.18,0,0,0,.68-2.2v-6.5h1.4Z"/><polygon class="cls-2" points="115.96 77.91 115.28 77.91 114.6 77.91 114.6 67.5 115.44 67.5 116.29 67.5 121.51 75.96 121.51 67.5 122.19 67.5 122.87 67.5 122.87 77.91 122.1 77.91 121.32 77.91 115.96 69.41 115.96 77.91"/><polygon class="cls-2" points="126.74 67.5 127.44 67.5 128.15 67.5 128.15 77.91 127.45 77.91 126.74 77.91 126.74 67.5"/><polygon class="cls-2" points="130.91 67.5 131.69 67.5 132.48 67.5 135.46 76.4 135.47 76.4 138.45 67.5 139.23 67.5 140.01 67.5 136.22 77.91 135.46 77.91 134.7 77.91 130.91 67.5"/><polygon class="cls-2" points="142.71 77.91 142.71 67.5 150.32 67.5 150.32 68.12 150.32 68.74 144.12 68.74 144.12 71.93 149.78 71.93 149.78 72.55 149.78 73.17 144.12 73.17 144.12 76.67 150.41 76.67 150.41 77.29 150.41 77.91 142.71 77.91"/><path class="cls-2" d="M154.16,67.49H159a3.86,3.86,0,0,1,2.52.73,2.59,2.59,0,0,1,.86,2.1,2.65,2.65,0,0,1-.9,2.14,3.27,3.27,0,0,1-.48.35l.23.1a2,2,0,0,1,1,1.84l.06,1.9a1.5,1.5,0,0,0,.12.67.87.87,0,0,0,.41.36v.22h-1.73a2.72,2.72,0,0,1-.12-.66c0-.36-.07-.76-.08-1.2l0-.82a1.87,1.87,0,0,0-.48-1.38,2.09,2.09,0,0,0-1.46-.42h-3.34v4.49h-1.41Zm1.41,4.71h3.48a2.08,2.08,0,0,0,1.44-.43,1.77,1.77,0,0,0,.45-1.35,1.64,1.64,0,0,0-.48-1.32,2.25,2.25,0,0,0-1.51-.42h-3.38Z"/><path class="cls-2" d="M172.56,70.52a2.12,2.12,0,0,0-.78-1.53,3,3,0,0,0-1.84-.53,3,3,0,0,0-1.81.46,1.57,1.57,0,0,0-.61,1.35,1.05,1.05,0,0,0,.41.9,5.1,5.1,0,0,0,1.65.58l1.82.44a4,4,0,0,1,2.07,1,2.7,2.7,0,0,1,.63,1.91A2.67,2.67,0,0,1,173,77.37a4.68,4.68,0,0,1-2.91.82,4.82,4.82,0,0,1-3.19-1,3.19,3.19,0,0,1-1.12-2.58v-.08h1.3a2.18,2.18,0,0,0,.82,1.75,3.48,3.48,0,0,0,2.19.62,3.57,3.57,0,0,0,2-.45,1.46,1.46,0,0,0,.68-1.31,1.37,1.37,0,0,0-.45-1.11,4.93,4.93,0,0,0-1.77-.68L168.73,73a4.36,4.36,0,0,1-2-.9,2.22,2.22,0,0,1-.58-1.61,3,3,0,0,1,1-2.37,4.05,4.05,0,0,1,2.75-.87,4.23,4.23,0,0,1,2.8.87,3.2,3.2,0,0,1,1.11,2.43Z"/><polygon class="cls-2" points="177.55 67.5 178.26 67.5 178.96 67.5 178.96 77.91 178.26 77.91 177.55 77.91 177.55 67.5"/><polygon class="cls-2" points="185.45 68.74 181.93 68.74 181.93 68.12 181.93 67.5 190.38 67.5 190.38 68.12 190.38 68.74 186.86 68.74 186.86 77.92 186.16 77.92 185.45 77.92 185.45 68.74"/><polygon class="cls-2" points="196.75 73.75 192.82 67.5 193.64 67.5 194.47 67.5 197.46 72.55 197.46 72.55 200.46 67.5 201.28 67.5 202.09 67.5 198.16 73.77 198.16 77.91 197.46 77.91 196.75 77.91 196.75 73.75"/></g></g></svg>